<svg xmlns="http://www.w3.org/2000/svg" xmlns:xlink="http://www.w3.org/1999/xlink" width="500" zoomAndPan="magnify" viewBox="0 0 375 374.999991" height="500" preserveAspectRatio="xMidYMid meet" version="1.0"><defs><clipPath id="f92f6a9b94"><path d="M 60.371094 5 L 314 5 L 314 370.578125 L 60.371094 370.578125 Z M 60.371094 5 " clip-rule="nonzero"/></clipPath></defs><rect x="-37.5" width="450" fill="#ffffff" y="-37.499999" height="449.999989" fill-opacity="1"/><rect x="-37.5" width="450" fill="#ffffff" y="-37.499999" height="449.999989" fill-opacity="1"/><g clip-path="url(#f92f6a9b94)"><path fill="#000101" d="M 308.164062 205.816406 C 303.269531 198.300781 295.851562 192.8125 287.84375 189.003906 C 287.445312 188.757812 286.851562 188.5625 286.804688 188.015625 C 283.640625 172.984375 275.828125 159.042969 264.851562 148.3125 C 253.082031 136.941406 237.707031 129.179688 221.488281 126.855469 C 208.386719 125.023438 194.835938 126.460938 182.527344 131.304688 C 165.320312 137.878906 150.785156 150.835938 141.683594 166.804688 C 136.988281 174.914062 133.625 183.863281 132.441406 193.160156 C 131.648438 193.160156 130.855469 192.910156 130.117188 192.613281 C 125.023438 190.441406 120.472656 187.027344 116.617188 183.074219 C 112.167969 178.128906 108.261719 172.441406 106.234375 166.0625 C 108.609375 164.433594 110.78125 162.207031 111.476562 159.390625 C 112.117188 157.066406 111.671875 154.691406 111.128906 152.417969 C 114.195312 148.957031 116.816406 145.050781 118 140.550781 C 119.289062 135.804688 119.980469 130.214844 117.160156 125.816406 C 123.242188 121.265625 131.003906 119.09375 138.519531 119.980469 C 142.425781 120.476562 146.433594 120.871094 150.339844 120.082031 C 155.628906 119.09375 160.621094 116.125 163.539062 111.527344 C 174.566406 95.0625 185.738281 78.695312 196.566406 62.082031 C 200.277344 56.25 203.046875 49.277344 201.910156 42.257812 C 201.066406 36.324219 197.308594 31.230469 192.710938 27.621094 C 186.480469 22.578125 179.90625 17.980469 173.230469 13.480469 C 168.1875 10.214844 162.996094 6.65625 156.914062 5.914062 C 148.0625 4.578125 138.71875 8.1875 132.734375 14.816406 C 130.808594 16.988281 129.226562 19.460938 127.542969 21.886719 C 117.902344 36.421875 107.964844 50.859375 98.371094 65.496094 C 95.753906 69.351562 94.417969 74 94.714844 78.648438 C 95.160156 85.171875 98.125 91.058594 100.003906 97.238281 C 101.734375 102.773438 102.328125 108.707031 101.535156 114.492188 C 101.242188 116.175781 100.992188 118.003906 99.90625 119.4375 C 97.777344 115.828125 95.058594 112.167969 91.105469 110.390625 C 88.433594 109.152344 84.972656 109.351562 82.796875 111.476562 C 81.066406 112.910156 80.472656 115.1875 80.128906 117.3125 C 76.371094 117.609375 72.660156 119.980469 71.625 123.738281 C 70.632812 126.410156 71.425781 129.226562 72.070312 131.898438 C 70.140625 132.09375 68.164062 132.886719 66.976562 134.519531 C 65.246094 136.792969 65.195312 139.90625 65.691406 142.628906 C 66.183594 145.792969 67.867188 148.609375 69.792969 151.082031 C 67.867188 153.605469 66.183594 156.273438 64.058594 158.597656 C 62.824219 160.03125 61.386719 161.464844 60.894531 163.394531 C 60.449219 165.421875 60.796875 167.644531 61.832031 169.476562 C 64.703125 174.667969 72.710938 176.25 77.113281 172.144531 C 79.289062 169.773438 80.820312 166.855469 82.898438 164.382812 C 83.589844 164.234375 84.527344 164.53125 84.777344 165.273438 C 85.617188 167.101562 86.308594 169.179688 88.089844 170.265625 C 89.671875 171.304688 91.648438 171.355469 93.476562 171.402344 C 95.605469 177.238281 98.621094 182.824219 102.476562 187.71875 C 109.597656 197.113281 119.929688 203.9375 131.253906 207.398438 C 131.597656 221.292969 135.703125 235.136719 143.21875 246.804688 C 151.328125 259.511719 163.242188 269.699219 176.839844 276.078125 C 176.097656 285.621094 175.800781 295.210938 176.640625 304.703125 C 173.824219 305.695312 171.054688 307.820312 170.511719 310.933594 C 169.96875 314.199219 170.957031 317.460938 171.203125 320.722656 C 167.050781 321.515625 163.34375 323.742188 160.277344 326.609375 C 159.238281 326.460938 158.398438 325.816406 157.457031 325.472656 C 149.300781 322.207031 139.214844 324.878906 133.824219 331.847656 C 131.105469 335.210938 129.621094 339.414062 129.078125 343.714844 C 124.777344 344.902344 120.375 346.1875 116.617188 348.660156 C 114.9375 349.746094 113.304688 351.675781 113.898438 353.800781 C 114.886719 356.421875 117.507812 357.90625 119.878906 359.140625 C 125.171875 361.8125 130.957031 363.246094 136.640625 364.53125 C 157.359375 368.734375 178.519531 369.625 199.632812 370.21875 C 220.945312 370.414062 242.253906 369.773438 263.417969 367.152344 C 270.042969 366.210938 276.71875 365.222656 283.195312 363.445312 C 288.039062 362.160156 292.933594 360.722656 297.382812 358.351562 C 299.3125 357.261719 301.339844 355.828125 301.933594 353.554688 C 302.28125 351.625 300.894531 349.945312 299.460938 348.859375 C 295.605469 345.941406 290.808594 344.753906 286.257812 343.371094 C 283.835938 338.476562 279.980469 334.273438 275.035156 331.847656 C 270.785156 329.671875 265.9375 329.128906 261.242188 329.230469 C 259.3125 326.210938 256.742188 323.640625 253.625 321.863281 C 252.488281 315.730469 249.671875 309.304688 244.085938 306.089844 C 243.046875 305.296875 240.820312 305.84375 240.769531 304.109375 C 238.992188 295.855469 236.914062 287.644531 234.195312 279.636719 C 242.304688 277.164062 249.769531 273.058594 256.742188 268.363281 C 257.039062 269.5 257.1875 270.785156 257.929688 271.726562 C 258.671875 272.714844 259.855469 273.207031 260.945312 273.753906 C 261.09375 276.570312 261.585938 279.4375 263.019531 281.863281 C 265.9375 287.152344 272.464844 289.96875 278.347656 288.882812 C 280.476562 288.488281 282.402344 287.449219 284.28125 286.460938 C 285.816406 286.65625 287.398438 286.90625 288.980469 286.558594 C 294.960938 285.371094 300.054688 281.121094 302.871094 275.78125 C 305.9375 270.144531 306.679688 263.46875 305.542969 257.238281 C 307.769531 255.410156 309.796875 253.085938 310.289062 250.167969 C 310.832031 247.597656 310.140625 244.925781 308.65625 242.75 C 311.128906 238.300781 312.367188 233.355469 313.304688 228.363281 C 314.492188 220.550781 312.5625 212.394531 308.164062 205.816406 Z M 110.386719 98.078125 C 115.925781 101.589844 121.167969 105.542969 126.359375 109.597656 C 127.347656 110.390625 128.386719 111.179688 129.078125 112.21875 C 127.347656 113.011719 125.417969 113.308594 123.589844 113.898438 C 120.175781 114.988281 116.863281 116.371094 113.699219 118.054688 C 112.367188 116.816406 110.882812 115.730469 109.347656 114.839844 C 109.792969 109.300781 109.597656 103.714844 108.3125 98.277344 C 108.0625 96.941406 109.84375 97.582031 110.386719 98.078125 Z M 222.476562 316.71875 C 221.835938 320.378906 222.871094 324.039062 224.207031 327.449219 C 223.566406 331.058594 223.019531 334.667969 222.625 338.328125 L 222.328125 338.574219 C 215.949219 338.226562 209.570312 337.929688 203.195312 338.128906 C 201.710938 333.332031 200.277344 328.535156 198.84375 323.742188 C 198.398438 322.652344 198.992188 321.515625 199.089844 320.425781 C 199.335938 317.558594 199.335938 314.445312 197.65625 311.972656 C 196.023438 309.550781 193.253906 308.414062 190.785156 307.078125 C 190.386719 306.1875 190.4375 305.199219 190.386719 304.257812 C 190.140625 296.546875 190.535156 288.882812 190.882812 281.167969 C 199.4375 283.445312 208.386719 284.136719 217.234375 283.195312 C 218.519531 283.046875 219.808594 282.898438 221.09375 282.800781 C 223.566406 291.503906 226.085938 300.253906 227.964844 309.15625 C 225.34375 310.984375 223.019531 313.503906 222.476562 316.71875 Z M 300.300781 223.566406 C 299.855469 227.820312 298.621094 231.972656 296.988281 235.929688 C 293.921875 235.582031 290.660156 235.929688 288.136719 237.808594 C 286.359375 239.042969 285.222656 240.921875 284.480469 242.898438 C 282.796875 243.046875 281.117188 243.246094 279.4375 243.296875 C 285.765625 231.625 289.078125 218.324219 289.078125 205.074219 C 293.378906 207.84375 297.1875 211.699219 299.164062 216.496094 C 300.054688 218.769531 300.550781 221.195312 300.300781 223.566406 Z M 300.300781 223.566406 " fill-opacity="1" fill-rule="nonzero"/><path fill="#000101" d="M 132.734375 14.816406 C 138.71875 8.1875 148.015625 4.628906 156.914062 5.914062 C 162.996094 6.65625 168.1875 10.214844 173.230469 13.429688 C 179.90625 17.878906 186.480469 22.527344 192.710938 27.570312 C 197.359375 31.179688 201.066406 36.273438 201.910156 42.207031 C 203.046875 49.226562 200.324219 56.199219 196.566406 62.035156 C 185.738281 78.648438 174.566406 95.011719 163.539062 111.476562 C 160.621094 116.074219 155.628906 119.042969 150.339844 120.03125 C 146.433594 120.824219 142.425781 120.425781 138.519531 119.933594 C 130.957031 119.09375 123.195312 121.21875 117.160156 125.765625 C 119.980469 130.117188 119.289062 135.703125 118 140.5 C 116.816406 145 114.195312 148.957031 111.128906 152.367188 C 111.671875 154.640625 112.117188 157.066406 111.476562 159.339844 C 110.78125 162.207031 108.609375 164.433594 106.234375 166.015625 C 108.261719 172.441406 112.167969 178.078125 116.617188 183.023438 C 120.472656 186.976562 125.023438 190.390625 130.117188 192.566406 C 130.855469 192.863281 131.648438 193.109375 132.441406 193.109375 C 133.625 183.8125 136.988281 174.863281 141.683594 166.757812 C 150.785156 150.785156 165.320312 137.832031 182.527344 131.253906 C 194.835938 126.410156 208.433594 124.976562 221.488281 126.753906 C 237.753906 129.078125 253.082031 136.84375 264.851562 148.214844 C 275.875 158.894531 283.640625 172.886719 286.804688 187.917969 C 286.851562 188.460938 287.398438 188.660156 287.84375 188.90625 C 295.851562 192.714844 303.269531 198.203125 308.164062 205.71875 C 312.5625 212.246094 314.542969 220.453125 313.453125 228.265625 C 312.515625 233.207031 311.230469 238.203125 308.804688 242.652344 C 310.238281 244.828125 310.980469 247.496094 310.386719 250.070312 C 309.894531 252.984375 307.816406 255.308594 305.640625 257.089844 C 306.777344 263.320312 306.039062 270.042969 302.972656 275.632812 C 300.152344 280.972656 295.0625 285.273438 289.078125 286.410156 C 287.546875 286.757812 285.964844 286.558594 284.429688 286.3125 C 282.550781 287.300781 280.625 288.339844 278.496094 288.734375 C 272.613281 289.820312 266.085938 287.003906 263.167969 281.714844 C 261.734375 279.242188 261.191406 276.421875 261.09375 273.605469 C 260.003906 273.109375 258.816406 272.566406 258.027344 271.578125 C 257.234375 270.636719 257.085938 269.351562 256.839844 268.214844 C 249.867188 272.910156 242.402344 277.066406 234.292969 279.488281 C 236.964844 287.5 239.039062 295.707031 240.871094 303.964844 C 240.917969 305.695312 243.144531 305.148438 244.183594 305.941406 C 249.769531 309.15625 252.636719 315.582031 253.726562 321.714844 C 256.839844 323.492188 259.410156 326.0625 261.339844 329.082031 C 266.039062 328.980469 270.882812 329.476562 275.136719 331.699219 C 280.078125 334.074219 283.984375 338.328125 286.359375 343.222656 C 290.90625 344.605469 295.703125 345.792969 299.558594 348.710938 C 300.992188 349.796875 302.378906 351.480469 302.03125 353.40625 C 301.4375 355.679688 299.410156 357.113281 297.484375 358.203125 C 293.035156 360.578125 288.136719 362.011719 283.292969 363.296875 C 276.816406 365.074219 270.191406 366.066406 263.515625 367.003906 C 242.351562 369.625 221.042969 370.265625 199.734375 370.070312 C 178.667969 369.527344 157.457031 368.585938 136.742188 364.382812 C 131.003906 363.097656 125.222656 361.664062 119.980469 358.992188 C 117.605469 357.757812 114.984375 356.273438 113.996094 353.652344 C 113.402344 351.480469 115.035156 349.601562 116.714844 348.511719 C 120.472656 345.992188 124.875 344.753906 129.175781 343.519531 C 129.71875 339.265625 131.203125 335.0625 133.921875 331.652344 C 139.3125 324.679688 149.398438 322.011719 157.507812 325.273438 C 158.445312 325.621094 159.335938 326.261719 160.324219 326.410156 C 163.390625 323.59375 167.101562 321.316406 171.253906 320.527344 C 171.003906 317.261719 170.015625 314 170.5625 310.738281 C 171.105469 307.621094 173.875 305.546875 176.691406 304.507812 C 175.851562 294.964844 176.148438 285.371094 176.890625 275.878906 C 163.242188 269.5 151.375 259.316406 143.269531 246.609375 C 135.703125 234.890625 131.648438 221.09375 131.300781 207.199219 C 120.027344 203.738281 109.695312 196.917969 102.476562 187.472656 C 98.621094 182.578125 95.605469 176.992188 93.476562 171.15625 C 91.648438 171.105469 89.671875 171.058594 88.089844 170.019531 C 86.308594 168.882812 85.617188 166.804688 84.777344 165.023438 C 84.527344 164.285156 83.589844 163.988281 82.898438 164.136719 C 80.820312 166.609375 79.289062 169.523438 77.113281 171.898438 C 72.710938 176 64.703125 174.417969 61.832031 169.226562 C 60.796875 167.398438 60.449219 165.222656 60.894531 163.144531 C 61.339844 161.21875 62.824219 159.785156 64.007812 158.351562 C 66.136719 156.027344 67.816406 153.308594 69.746094 150.835938 C 67.816406 148.3125 66.183594 145.542969 65.640625 142.378906 C 65.144531 139.660156 65.195312 136.59375 66.925781 134.269531 C 68.113281 132.640625 70.089844 131.847656 72.019531 131.652344 C 71.375 128.980469 70.585938 126.210938 71.574219 123.492188 C 72.660156 119.734375 76.371094 117.363281 80.128906 117.066406 C 80.472656 114.9375 81.066406 112.664062 82.796875 111.230469 C 84.972656 109.152344 88.433594 108.90625 91.105469 110.140625 C 95.058594 111.921875 97.730469 115.582031 99.90625 119.191406 C 100.992188 117.757812 101.242188 115.976562 101.535156 114.246094 C 102.328125 108.460938 101.734375 102.527344 100.003906 96.992188 C 98.125 90.808594 95.160156 84.925781 94.714844 78.398438 C 94.417969 73.75 95.753906 69.105469 98.371094 65.246094 C 107.964844 50.613281 117.902344 36.175781 127.59375 21.589844 C 129.226562 19.460938 130.808594 16.988281 132.734375 14.816406 Z M 108.261719 98.277344 C 109.546875 103.664062 109.746094 109.300781 109.300781 114.839844 C 110.882812 115.777344 112.316406 116.816406 113.652344 118.054688 C 116.816406 116.371094 120.128906 114.988281 123.539062 113.898438 C 125.367188 113.308594 127.296875 113.011719 129.027344 112.21875 C 128.335938 111.179688 127.296875 110.390625 126.308594 109.597656 C 121.167969 105.542969 115.875 101.589844 110.339844 98.078125 C 109.84375 97.582031 108.0625 96.941406 108.261719 98.277344 Z M 82.699219 117.953125 C 83.09375 120.128906 84.378906 122.007812 85.566406 123.789062 C 87.542969 126.558594 89.621094 129.179688 91.550781 131.996094 C 92.09375 130.464844 92.585938 128.832031 93.675781 127.546875 C 95.109375 125.667969 97.1875 124.433594 99.3125 123.441406 C 97.679688 120.425781 96 117.363281 93.578125 114.9375 C 91.746094 113.257812 89.375 111.625 86.753906 112.019531 C 83.984375 112.367188 82.105469 115.335938 82.699219 117.953125 Z M 73.949219 123.9375 C 72.957031 126.3125 73.503906 128.929688 74.242188 131.304688 C 75.332031 134.171875 77.507812 136.398438 79.484375 138.621094 C 81.265625 140.453125 83.09375 142.28125 85.21875 143.714844 C 87.988281 145.097656 91.597656 143.023438 92.191406 140.105469 C 92.4375 138.671875 91.945312 137.238281 91.253906 136 C 88.039062 130.316406 83.242188 125.667969 80.472656 119.683594 C 77.703125 119.636719 74.9375 121.265625 73.949219 123.9375 Z M 95.257812 129.179688 C 93.578125 131.105469 93.378906 134.074219 94.464844 136.347656 C 95.011719 137.4375 96.445312 137.582031 97.53125 137.683594 C 100.992188 137.683594 104.207031 136.101562 107.617188 135.558594 C 108.507812 135.507812 108.558594 136.695312 107.867188 136.992188 C 105.292969 138.574219 102.277344 139.167969 99.460938 140.304688 C 98.769531 141.589844 98.222656 142.925781 97.382812 144.160156 C 97.1875 146.535156 97.632812 148.90625 97.1875 151.28125 C 96.839844 151.972656 96.097656 151.675781 95.503906 151.578125 C 95.40625 150.09375 95.308594 148.558594 95.207031 147.078125 C 91.746094 152.167969 88.238281 157.214844 84.480469 162.058594 C 87.542969 163.492188 91.152344 163 94.316406 162.257812 C 96.691406 161.710938 98.570312 160.179688 100.398438 158.695312 C 100.746094 160.378906 99.363281 161.710938 98.125 162.601562 C 94.960938 164.777344 91.003906 165.023438 87.246094 164.976562 C 87.792969 166.902344 89.175781 168.980469 91.402344 169.03125 C 97.777344 169.078125 104.15625 166.210938 108.113281 161.21875 C 109.792969 159.042969 109.546875 156.175781 108.953125 153.703125 C 107.667969 154.394531 106.433594 155.234375 104.949219 155.53125 C 104.058594 155.582031 103.613281 154.59375 104.503906 154.195312 C 109.792969 151.03125 114.046875 145.988281 115.628906 139.957031 C 116.617188 136.25 117.507812 132.046875 115.828125 128.4375 C 113.601562 125.570312 109.597656 125.171875 106.234375 125.125 C 102.230469 124.828125 97.828125 125.964844 95.257812 129.179688 Z M 203.144531 128.78125 C 190.585938 130.070312 178.324219 134.519531 167.890625 141.636719 C 157.0625 149.003906 148.210938 159.191406 142.082031 170.761719 C 136.789062 180.847656 134.023438 192.121094 133.578125 203.492188 C 133.179688 215.0625 135.605469 226.730469 140.597656 237.164062 C 142.378906 240.773438 144.15625 244.480469 146.777344 247.597656 C 147.765625 249.671875 149.300781 251.453125 150.785156 253.183594 C 154.9375 257.929688 159.335938 262.480469 164.578125 266.039062 C 169.867188 270.09375 175.851562 273.160156 181.980469 275.679688 C 192.664062 280.03125 204.332031 282.058594 215.851562 281.019531 C 230.4375 279.585938 244.777344 274.394531 256.394531 265.347656 C 256.890625 264.953125 256.792969 264.210938 256.9375 263.664062 C 257.335938 259.957031 258.964844 256.546875 260.648438 253.28125 C 259.707031 252.640625 258.621094 252.046875 258.125 250.957031 C 257.085938 248.933594 257.285156 246.507812 257.730469 244.332031 C 259.066406 239.09375 262.28125 234.246094 266.777344 231.132812 C 268.507812 229.894531 270.636719 228.90625 272.859375 229.300781 C 274.640625 229.746094 275.875 231.625 275.875 233.40625 C 276.125 237.558594 273.898438 241.269531 272.019531 244.828125 C 273.402344 244.433594 274.9375 244.332031 276.222656 243.640625 C 279.289062 239.191406 281.214844 234.050781 282.945312 228.90625 C 285.566406 220.699219 286.953125 211.996094 286.605469 203.394531 C 284.378906 201.515625 281.5625 200.425781 278.890625 199.191406 C 276.667969 198.152344 274.097656 197.558594 272.265625 195.78125 C 270.140625 193.851562 269.597656 190.636719 270.289062 187.96875 C 270.933594 185.542969 273.503906 183.617188 276.074219 184.109375 C 278.890625 184.65625 281.414062 185.988281 284.132812 186.878906 C 281.710938 175.855469 276.46875 165.570312 269.5 156.71875 C 260.84375 145.988281 249.277344 137.632812 236.320312 132.984375 C 225.742188 129.179688 214.320312 127.746094 203.144531 128.78125 Z M 70.632812 134.617188 C 68.164062 135.457031 67.371094 138.277344 67.667969 140.648438 C 68.113281 144.703125 70.042969 148.855469 73.550781 151.132812 C 75.777344 152.714844 78.445312 154.046875 81.214844 153.503906 C 82.996094 153.058594 84.675781 151.726562 85.023438 149.847656 C 85.070312 148.3125 84.480469 146.78125 83.339844 145.691406 C 80.523438 142.824219 77.507812 140.15625 75.035156 136.992188 C 74.34375 136.199219 73.800781 135.261719 73.007812 134.566406 C 72.265625 134.171875 71.375 134.320312 70.632812 134.617188 Z M 289.027344 205.125 C 289.027344 218.375 285.714844 231.675781 279.386719 243.34375 C 281.066406 243.296875 282.75 243.097656 284.429688 242.949219 C 285.171875 240.972656 286.308594 239.042969 288.089844 237.808594 C 290.609375 235.929688 293.921875 235.582031 296.941406 235.929688 C 298.570312 231.972656 299.808594 227.820312 300.253906 223.566406 C 300.5 221.144531 300.003906 218.722656 299.066406 216.496094 C 297.136719 211.75 293.332031 207.894531 289.027344 205.125 Z M 271.722656 231.824219 C 271.230469 233.800781 270.933594 235.828125 270.140625 237.707031 C 268.507812 242.058594 265.742188 245.816406 263.464844 249.773438 C 266.035156 248.238281 268.359375 246.164062 269.894531 243.542969 C 271.820312 240.425781 273.800781 236.917969 273.550781 233.160156 C 273.453125 232.171875 272.515625 231.921875 271.722656 231.824219 Z M 291.601562 238.746094 C 289.472656 239.390625 287.742188 241.121094 287.148438 243.246094 C 288.929688 243.445312 290.808594 243.492188 292.539062 244.183594 C 293.132812 244.332031 293.332031 244.925781 293.578125 245.371094 C 292.441406 245.667969 291.203125 245.765625 290.015625 245.667969 C 284.578125 245.324219 278.941406 245.371094 273.699219 247.054688 C 268.757812 248.535156 264.257812 251.800781 261.785156 256.398438 C 259.757812 260.304688 258.472656 264.851562 259.3125 269.253906 C 259.660156 271.03125 261.6875 271.921875 263.367188 271.675781 C 266.183594 271.28125 268.804688 269.796875 270.683594 267.71875 C 270.289062 266.832031 270.042969 265.839844 269.5 265 C 268.90625 264.40625 268.0625 264.0625 267.667969 263.320312 C 268.558594 262.875 269.695312 262.824219 270.488281 263.566406 C 273.304688 265.839844 274.144531 269.847656 273.699219 273.308594 C 273.453125 274.59375 272.761719 276.71875 271.082031 276.078125 C 271.03125 274.246094 271.574219 272.46875 271.328125 270.636719 C 269.398438 271.875 267.472656 273.160156 265.195312 273.753906 C 264.652344 274 263.761719 273.902344 263.464844 274.542969 C 263.566406 277.511719 264.652344 280.425781 266.628906 282.652344 C 270.042969 286.359375 275.925781 287.894531 280.625 285.71875 C 282.796875 284.878906 284.332031 283.046875 285.714844 281.21875 C 286.011719 280.574219 287.050781 280.527344 287.296875 281.269531 C 287.496094 282.40625 286.65625 283.394531 286.257812 284.382812 C 290.363281 284.285156 294.171875 282.304688 297.136719 279.539062 C 301.539062 275.1875 303.761719 268.90625 303.761719 262.777344 C 303.8125 257.929688 302.179688 252.984375 298.769531 249.476562 C 298.078125 248.832031 299.214844 248.089844 299.808594 248.585938 C 302.132812 249.921875 303.417969 252.441406 304.800781 254.667969 C 307.273438 252.789062 308.90625 249.523438 308.015625 246.460938 C 307.175781 244.183594 305.195312 242.601562 303.316406 241.167969 C 299.957031 238.894531 295.605469 237.410156 291.601562 238.746094 Z M 190.832031 281.167969 C 190.535156 288.882812 190.089844 296.546875 190.339844 304.257812 C 190.4375 305.199219 190.339844 306.1875 190.734375 307.078125 C 193.207031 308.414062 195.976562 309.550781 197.605469 311.972656 C 199.335938 314.445312 199.289062 317.558594 199.039062 320.429688 C 198.941406 321.515625 198.347656 322.652344 198.792969 323.742188 C 200.226562 328.535156 201.660156 333.332031 203.144531 338.128906 C 209.523438 337.929688 215.949219 338.226562 222.277344 338.574219 L 222.574219 338.328125 C 222.972656 334.667969 223.515625 331.058594 224.15625 327.449219 C 222.824219 324.039062 221.785156 320.429688 222.425781 316.71875 C 222.921875 313.503906 225.296875 310.984375 227.816406 309.15625 C 225.9375 300.253906 223.417969 291.550781 220.945312 282.851562 C 219.660156 282.898438 218.375 283.097656 217.085938 283.246094 C 208.335938 284.183594 199.386719 283.445312 190.832031 281.167969 Z M 172.636719 312.960938 C 172.835938 315.53125 173.230469 318.105469 173.527344 320.722656 C 177.433594 321.367188 180.84375 323.492188 184.652344 324.480469 C 188.65625 325.371094 192.8125 323.542969 195.777344 320.871094 C 197.558594 319.4375 196.914062 316.867188 196.421875 314.9375 C 195.875 312.515625 193.503906 311.183594 191.328125 310.390625 C 191.921875 311.773438 193.007812 313.308594 192.367188 314.839844 C 189.300781 318.351562 183.566406 318.105469 179.957031 315.632812 C 177.53125 313.554688 177.78125 310.042969 176.691406 307.324219 C 174.566406 308.414062 172.441406 310.441406 172.636719 312.960938 Z M 242.304688 308.015625 C 242.601562 310.636719 243.195312 313.503906 241.957031 316.027344 C 240.03125 320.378906 233.304688 321.417969 230.238281 317.757812 C 228.707031 316.273438 229.003906 314 228.460938 312.121094 C 226.085938 313.355469 224.703125 316.078125 224.703125 318.695312 C 224.703125 321.613281 225.492188 324.582031 226.925781 327.152344 C 228.261719 328.832031 230.734375 329.082031 232.761719 328.832031 C 234.640625 327.84375 235.976562 326.113281 237.753906 324.976562 C 241.613281 322.355469 246.210938 320.28125 250.957031 320.722656 C 249.769531 315.679688 247.148438 310.339844 242.304688 308.015625 Z M 166.703125 324.878906 C 169.820312 326.410156 173.328125 327.351562 176 329.671875 C 176.542969 330.117188 177.136719 331.109375 176.445312 331.699219 C 175.949219 332.394531 175.207031 331.75 174.714844 331.453125 C 171.796875 329.230469 168.285156 328.089844 164.925781 326.855469 C 163.6875 326.261719 162.945312 327.792969 162.054688 328.4375 C 162.304688 328.785156 162.601562 329.082031 162.847656 329.425781 C 167.644531 334.222656 170.015625 341.046875 170.363281 347.769531 C 176.742188 347.324219 182.972656 346.039062 189.152344 344.554688 C 193.253906 343.417969 197.410156 342.28125 201.117188 340.105469 C 199.78125 334.617188 197.953125 329.230469 196.273438 323.789062 C 193.15625 325.816406 189.496094 327.449219 185.691406 327.152344 C 181.390625 326.65625 177.730469 323.9375 173.476562 323.296875 C 171.105469 322.851562 168.730469 323.691406 166.703125 324.878906 Z M 240.277344 326.113281 C 237.953125 327.546875 236.273438 329.820312 233.699219 330.859375 C 231.179688 331.75 228.460938 330.960938 226.285156 329.625 C 225.640625 333.234375 225 336.84375 224.75 340.5 C 224.601562 341.292969 225.34375 341.789062 225.789062 342.28125 C 228.3125 344.65625 231.523438 346.089844 234.738281 347.375 C 237.011719 348.164062 239.289062 349.054688 241.710938 349.203125 C 242.253906 345.199219 243.589844 341.242188 245.914062 337.882812 C 248.832031 333.53125 253.675781 330.960938 258.621094 329.773438 C 257.929688 328.535156 256.988281 327.546875 256 326.558594 C 252.339844 328.4375 248.285156 329.476562 244.675781 331.402344 C 243.984375 331.699219 243.34375 332.246094 242.550781 332.195312 C 241.5625 331.847656 241.910156 330.613281 242.601562 330.117188 C 245.914062 327.546875 250.363281 327.203125 253.773438 324.828125 C 252.488281 323.9375 251.105469 322.898438 249.472656 322.898438 C 246.109375 323 242.996094 324.382812 240.277344 326.113281 Z M 141.191406 328.734375 C 136.195312 331.453125 132.785156 336.695312 131.746094 342.234375 C 133.921875 344.507812 137.039062 345.546875 139.953125 346.433594 C 149.050781 348.859375 158.644531 348.757812 167.988281 347.96875 C 167.742188 341.6875 165.371094 335.308594 160.917969 330.8125 C 155.777344 325.71875 147.320312 325.421875 141.191406 328.734375 Z M 252.191406 335.015625 C 247.25 338.277344 244.675781 344.0625 243.886719 349.796875 C 247.101562 350.738281 250.414062 351.035156 253.726562 351.28125 C 260.648438 351.972656 267.667969 351.378906 274.394531 349.699219 C 277.902344 348.710938 281.511719 347.472656 284.183594 344.902344 C 281.710938 338.625 275.875 333.875 269.351562 332.34375 C 263.613281 331.007812 257.1875 331.601562 252.191406 335.015625 Z M 179.511719 348.859375 C 169.078125 350.636719 158.445312 351.332031 147.914062 350.242188 C 142.082031 349.601562 136.097656 348.363281 131.152344 345.050781 C 131.152344 346.484375 130.757812 348.066406 131.351562 349.453125 C 133.132812 351.230469 135.605469 352.023438 137.976562 352.8125 C 146.234375 355.285156 154.9375 355.335938 163.441406 355.039062 C 172.933594 354.542969 182.378906 353.257812 191.523438 350.785156 C 194.589844 349.894531 197.65625 348.957031 200.472656 347.425781 C 201.214844 346.929688 202.203125 346.484375 202.601562 345.59375 C 202.699219 344.457031 202.351562 343.320312 202.15625 342.234375 C 195.035156 345.644531 187.273438 347.523438 179.511719 348.859375 Z M 223.761719 343.667969 C 223.613281 345 222.722656 346.632812 223.8125 347.820312 C 226.085938 350.390625 229.398438 351.773438 232.464844 353.109375 C 241.066406 356.472656 250.265625 357.957031 259.460938 358.203125 C 266.53125 358.351562 273.699219 357.757812 280.375 355.382812 C 282.355469 354.644531 284.429688 353.703125 285.816406 352.070312 C 286.953125 350.6875 286.308594 348.757812 285.816406 347.226562 C 285.320312 346.878906 284.925781 347.472656 284.527344 347.722656 C 282.105469 349.648438 279.140625 350.738281 276.273438 351.625 C 271.082031 353.109375 265.691406 353.851562 260.300781 353.851562 C 251.996094 353.949219 243.6875 352.8125 235.777344 350.292969 C 231.425781 348.859375 227.074219 346.929688 223.761719 343.667969 Z M 223.761719 343.667969 " fill-opacity="1" fill-rule="nonzero"/></g><path fill="#000101" d="M 212.441406 131.996094 C 216.640625 131.601562 220.992188 132.09375 224.898438 133.679688 C 226.582031 134.320312 228.210938 135.210938 229.351562 136.644531 C 230.339844 137.832031 230.289062 139.808594 229.152344 140.898438 C 227.667969 142.480469 225.394531 142.972656 223.367188 143.320312 C 218.273438 144.011719 212.835938 143.269531 208.386719 140.601562 C 206.507812 139.511719 204.824219 137.238281 205.8125 135.011719 C 207.148438 132.789062 210.066406 132.34375 212.441406 131.996094 Z M 207.941406 135.902344 C 207.890625 136.148438 207.839844 136.59375 207.792969 136.84375 C 208.878906 136.890625 209.917969 136.890625 211.007812 136.890625 C 215.949219 136.742188 220.894531 137.582031 225.542969 139.265625 C 226.183594 139.460938 226.925781 139.757812 227.617188 139.414062 C 228.015625 138.574219 227.519531 137.878906 226.777344 137.484375 C 223.664062 135.457031 219.90625 134.617188 216.199219 134.417969 C 213.429688 134.269531 210.363281 134.371094 207.941406 135.902344 Z M 207.941406 135.902344 " fill-opacity="1" fill-rule="nonzero"/><path fill="#000101" d="M 178.027344 138.722656 C 179.558594 138.324219 181.539062 138.671875 182.179688 140.253906 C 182.722656 142.035156 181.734375 143.863281 180.894531 145.394531 C 178.621094 149.054688 175.058594 151.726562 171.300781 153.703125 C 168.878906 154.890625 166.160156 155.878906 163.441406 155.53125 C 161.414062 155.085938 161.019531 152.515625 161.90625 150.933594 C 163.390625 148.164062 165.8125 146.089844 168.238281 144.160156 C 171.203125 141.933594 174.367188 139.710938 178.027344 138.722656 Z M 177.285156 141.390625 C 172.589844 143.269531 168.535156 146.484375 165.171875 150.191406 C 164.527344 150.933594 163.785156 151.726562 163.785156 152.761719 C 164.332031 153.554688 165.320312 153.257812 165.8125 152.613281 C 169.273438 149.003906 173.28125 145.941406 177.632812 143.46875 C 178.621094 142.875 179.855469 142.28125 180.003906 140.996094 C 179.113281 140.898438 178.175781 140.996094 177.285156 141.390625 Z M 177.285156 141.390625 " fill-opacity="1" fill-rule="nonzero"/><path fill="#000101" d="M 250.414062 152.566406 C 252.933594 152.21875 255.503906 152.761719 257.582031 154.296875 C 261.785156 157.3125 265.246094 161.613281 266.480469 166.707031 C 266.976562 168.882812 267.125 171.355469 265.890625 173.332031 C 265.148438 174.617188 263.761719 175.359375 262.378906 175.804688 C 258.523438 176.347656 254.617188 174.863281 251.945312 172.144531 C 248.089844 168.4375 245.320312 162.851562 246.554688 157.410156 C 247 155.234375 248.632812 153.652344 250.414062 152.566406 Z M 250.265625 155.136719 C 250.90625 156.371094 252.339844 156.769531 253.328125 157.65625 C 258.078125 161.5625 261.835938 167.152344 262.328125 173.382812 C 263.566406 172.835938 264.703125 171.75 264.652344 170.265625 C 264.652344 165.421875 261.734375 161.121094 258.375 157.855469 C 256.199219 155.976562 253.230469 153.949219 250.265625 155.136719 Z M 250.265625 155.136719 " fill-opacity="1" fill-rule="nonzero"/><path fill="#000101" d="M 166.210938 158.746094 C 169.570312 157.511719 173.578125 158.152344 176.394531 160.425781 C 177.085938 160.824219 176.691406 161.5625 176.691406 162.207031 C 174.863281 162.75 173.429688 161.019531 171.699219 160.722656 C 167.445312 159.683594 163.390625 162.355469 160.523438 165.273438 C 160.027344 165.964844 159.238281 165.667969 158.546875 165.617188 C 158.496094 164.925781 158.496094 164.234375 159.039062 163.738281 C 161.019531 161.5625 163.441406 159.734375 166.210938 158.746094 Z M 166.210938 158.746094 " fill-opacity="1" fill-rule="nonzero"/><path fill="#000101" d="M 192.859375 161.761719 C 196.074219 159.636719 200.078125 158.648438 203.933594 159.191406 C 209.078125 159.980469 213.132812 164.480469 214.269531 169.425781 C 213.675781 169.625 212.738281 170.265625 212.292969 169.476562 C 211.007812 167.449219 210.066406 165.074219 208.089844 163.589844 C 204.675781 160.675781 199.585938 160.871094 195.726562 162.851562 C 194.640625 163.292969 193.550781 164.382812 192.316406 163.691406 C 192.265625 163.046875 192.117188 162.15625 192.859375 161.761719 Z M 192.859375 161.761719 " fill-opacity="1" fill-rule="nonzero"/><path fill="#000101" d="M 146.976562 167.792969 C 147.71875 167.300781 148.757812 167.894531 148.90625 168.683594 C 149.25 171.253906 148.261719 173.777344 147.46875 176.148438 C 146.085938 179.957031 144.601562 183.765625 142.230469 187.078125 C 141.4375 188.164062 140.203125 189.402344 138.71875 188.90625 C 137.582031 188.164062 138.027344 186.683594 138.222656 185.59375 C 139.410156 180.5 141.339844 175.507812 144.058594 171.058594 C 144.898438 169.871094 145.691406 168.488281 146.976562 167.792969 Z M 146.976562 167.792969 " fill-opacity="1" fill-rule="nonzero"/><path fill="#000101" d="M 163.441406 171.15625 C 166.753906 169.820312 170.710938 170.167969 173.527344 172.441406 C 178.421875 176.25 180.597656 182.628906 180.648438 188.660156 C 180.746094 193.753906 179.214844 198.945312 176 203 C 173.429688 206.261719 169.324219 208.386719 165.171875 208.140625 C 160.472656 207.992188 156.171875 204.828125 154.046875 200.722656 C 151.722656 196.273438 151.625 191.132812 151.96875 186.285156 C 150.832031 185.59375 149.546875 184.902344 148.90625 183.664062 C 148.507812 182.972656 149.003906 181.785156 149.941406 181.984375 C 150.929688 182.578125 151.722656 183.417969 152.761719 183.863281 C 153.304688 182.082031 154.195312 180.453125 154.9375 178.722656 C 153.652344 177.878906 152.167969 177.1875 151.277344 175.902344 C 150.636719 175.0625 151.574219 173.777344 152.5625 174.074219 C 153.75 174.964844 154.789062 176.101562 156.074219 176.890625 C 158.101562 174.566406 160.375 172.195312 163.441406 171.15625 Z M 164.082031 173.578125 C 161.5625 174.417969 159.632812 176.398438 158.050781 178.425781 C 154.835938 182.777344 153.503906 188.511719 154.394531 193.851562 C 154.9375 197.609375 156.417969 201.5625 159.683594 203.789062 C 162.453125 205.867188 166.308594 206.261719 169.523438 204.925781 C 167.246094 200.921875 165.863281 196.371094 165.960938 191.726562 C 167.394531 190.882812 168.878906 190.144531 170.363281 189.402344 C 170.3125 189.253906 170.265625 189.003906 170.214844 188.90625 C 168.832031 188.117188 167.394531 187.421875 166.109375 186.386719 C 166.210938 181.738281 167.542969 177.140625 169.917969 173.132812 C 167.988281 172.9375 165.914062 172.886719 164.082031 173.578125 Z M 164.082031 173.578125 " fill-opacity="1" fill-rule="nonzero"/><path fill="#000101" d="M 191.773438 175.558594 C 195.035156 172.835938 199.585938 171.007812 203.835938 172.195312 C 207.644531 173.332031 210.164062 176.644531 212.242188 179.808594 C 213.675781 179.117188 214.910156 178.128906 216.296875 177.386719 C 217.1875 176.890625 218.125 178.175781 217.53125 178.96875 C 216.394531 180.453125 214.515625 180.996094 213.03125 182.082031 C 213.578125 183.960938 214.023438 185.839844 214.46875 187.769531 C 215.800781 187.375 217.039062 186.683594 218.324219 186.238281 C 219.511719 185.890625 219.957031 187.96875 218.964844 188.363281 C 217.582031 189.105469 216.050781 189.550781 214.617188 190.144531 C 214.566406 195.878906 213.03125 202.007812 208.683594 206.0625 C 203.6875 210.957031 194.789062 210.710938 189.941406 205.71875 C 186.285156 202.058594 184.800781 196.769531 184.898438 191.726562 C 185.046875 185.691406 187.273438 179.5625 191.773438 175.558594 Z M 190.488281 180.796875 C 187.027344 186.335938 186.332031 193.503906 188.757812 199.539062 C 190.140625 203.148438 193.304688 206.0625 197.0625 206.90625 C 199.238281 207.496094 201.511719 207.152344 203.640625 206.507812 C 200.574219 202.949219 199.1875 198.152344 199.238281 193.503906 C 200.871094 192.566406 202.5 191.625 204.132812 190.6875 C 202.453125 189.746094 200.671875 188.957031 199.238281 187.671875 C 199.585938 183.074219 200.917969 178.425781 203.640625 174.617188 C 198.445312 173.183594 193.207031 176.496094 190.488281 180.796875 Z M 190.488281 180.796875 " fill-opacity="1" fill-rule="nonzero"/><path fill="#000101" d="M 250.460938 197.113281 C 252.785156 194.789062 256.296875 193.554688 259.511719 194.445312 C 263.367188 195.730469 265.640625 199.636719 266.480469 203.441406 C 267.371094 207.894531 266.878906 212.6875 264.898438 216.742188 C 263.714844 219.066406 262.03125 221.195312 259.707031 222.527344 C 257.382812 223.8125 254.417969 223.664062 252.144531 222.378906 C 249.277344 220.648438 247.199219 217.734375 246.257812 214.566406 C 244.527344 208.535156 245.863281 201.515625 250.460938 197.113281 Z M 257.136719 196.472656 C 257.285156 196.917969 257.53125 197.363281 257.730469 197.757812 C 260.945312 202.355469 261.191406 208.585938 259.214844 213.679688 C 258.273438 216.398438 256.496094 218.722656 254.664062 220.898438 C 256 221.144531 257.382812 221.195312 258.570312 220.453125 C 261.390625 218.820312 262.972656 215.707031 263.910156 212.6875 C 265.046875 208.585938 265.046875 203.886719 262.773438 200.128906 C 261.539062 198.152344 259.511719 196.519531 257.136719 196.472656 Z M 257.136719 196.472656 " fill-opacity="1" fill-rule="nonzero"/><path fill="#000101" d="M 217.1875 204.480469 C 217.929688 203.789062 218.917969 204.382812 219.460938 205.027344 C 220.546875 206.261719 220.351562 208.042969 220.351562 209.574219 C 220.351562 217.585938 217.234375 225.496094 211.996094 231.527344 C 207.988281 236.078125 202.453125 238.992188 196.667969 240.625 C 188.558594 242.800781 179.410156 242.058594 172.339844 237.3125 C 166.753906 233.457031 162.15625 228.066406 159.535156 221.785156 C 158.84375 219.90625 158.050781 217.78125 158.59375 215.753906 C 159.585938 213.925781 162.105469 214.46875 163.738281 215.011719 C 171.796875 218.128906 180.597656 219.5625 189.25 218.671875 C 197.210938 218.027344 204.824219 215.410156 211.894531 211.800781 C 213.921875 210.761719 216.050781 209.921875 217.828125 208.535156 C 218.816406 207.101562 216 205.867188 217.1875 204.480469 Z M 195.183594 229.996094 C 193.996094 231.03125 193.402344 232.566406 192.316406 233.703125 C 191.871094 234.148438 190.734375 233.851562 190.980469 233.109375 C 191.328125 231.625 192.21875 230.292969 192.710938 228.859375 C 190.980469 228.757812 189.25 228.859375 187.617188 229.402344 C 183.269531 230.738281 179.015625 233.058594 176.050781 236.570312 C 181.6875 239.4375 188.410156 240.03125 194.542969 238.546875 C 200.621094 237.3125 206.457031 234.296875 210.460938 229.5 C 210.859375 228.859375 211.550781 228.265625 211.5 227.472656 C 210.660156 226.433594 209.175781 226.285156 207.941406 226.089844 C 203.441406 225.839844 198.644531 226.929688 195.183594 229.996094 Z M 195.183594 229.996094 " fill-opacity="1" fill-rule="nonzero"/><path fill="#000101" d="M 140.003906 205.320312 C 141.390625 204.628906 143.121094 205.027344 144.257812 206.015625 C 146.433594 207.84375 147.421875 210.660156 148.210938 213.28125 C 149.347656 217.882812 149.792969 222.875 148.3125 227.472656 C 147.816406 229.003906 146.433594 230.539062 144.703125 230.339844 C 143.367188 230.292969 142.378906 229.203125 141.636719 228.214844 C 139.164062 224.753906 138.074219 220.550781 137.484375 216.398438 C 137.234375 213.875 136.988281 211.304688 137.484375 208.832031 C 137.828125 207.449219 138.621094 205.964844 140.003906 205.320312 Z M 139.511719 210.859375 C 139.410156 216.59375 140.5 222.628906 143.910156 227.375 C 144.257812 228.164062 145.097656 227.769531 145.691406 227.472656 C 145.394531 226.335938 144.949219 225.25 144.453125 224.160156 C 142.179688 218.917969 141.140625 213.234375 141.242188 207.546875 C 139.460938 207.597656 139.558594 209.625 139.511719 210.859375 Z M 139.511719 210.859375 " fill-opacity="1" fill-rule="nonzero"/><path fill="#000101" d="M 154.984375 245.222656 C 155.578125 243.738281 157.0625 242.800781 158.59375 242.601562 C 161.761719 242.109375 164.777344 243.59375 167.25 245.421875 C 171.105469 248.4375 174.21875 252.640625 175.109375 257.535156 C 175.207031 259.265625 175.40625 261.492188 173.773438 262.675781 C 171.996094 263.960938 169.621094 263.171875 167.839844 262.332031 C 162.453125 259.414062 157.902344 254.863281 155.234375 249.328125 C 154.9375 247.992188 154.492188 246.558594 154.984375 245.222656 Z M 157.359375 245.570312 C 156.519531 247.003906 157.457031 248.488281 158.148438 249.773438 C 160.722656 254.320312 164.675781 258.128906 169.421875 260.351562 C 170.3125 260.847656 171.351562 260.996094 172.390625 260.898438 C 172.539062 260.15625 172.933594 259.066406 171.945312 258.769531 C 167.101562 256.300781 162.898438 252.738281 159.585938 248.4375 C 158.792969 247.449219 158.199219 246.410156 157.359375 245.570312 Z M 157.359375 245.570312 " fill-opacity="1" fill-rule="nonzero"/><path fill="#000101" d="M 221.835938 244.332031 C 225 243.492188 228.359375 244.035156 231.425781 245.027344 C 233.75 245.964844 236.171875 247.546875 236.816406 250.117188 C 238.199219 254.964844 235.726562 260.203125 231.625 262.875 C 225.742188 266.730469 217.382812 266.335938 211.796875 262.035156 C 209.71875 260.5 208.78125 257.882812 208.929688 255.359375 C 210.164062 249.375 216.097656 245.519531 221.835938 244.332031 Z M 232.21875 248.683594 C 226.085938 252.9375 218.71875 255.707031 211.203125 255.753906 C 211.152344 257.140625 211.351562 259.363281 213.179688 259.464844 C 217.582031 259.464844 221.933594 258.128906 225.988281 256.398438 C 229.203125 254.863281 232.515625 253.132812 234.589844 250.167969 C 233.996094 249.523438 233.304688 247.746094 232.21875 248.683594 Z M 232.21875 248.683594 " fill-opacity="1" fill-rule="nonzero"/><path fill="#000101" d="M 196.816406 271.824219 C 201.613281 271.527344 206.457031 271.675781 211.105469 272.765625 C 212.785156 273.207031 214.617188 273.703125 215.800781 275.039062 C 216.347656 275.828125 216.445312 277.261719 215.503906 277.808594 C 214.070312 278.746094 212.242188 278.945312 210.5625 279.09375 C 206.011719 279.339844 201.414062 278.84375 196.964844 277.660156 C 195.382812 277.164062 193.75 276.71875 192.414062 275.730469 C 191.671875 275.234375 191.328125 274.199219 191.773438 273.355469 C 193.15625 272.171875 195.085938 272.023438 196.816406 271.824219 Z M 196.816406 271.824219 " fill-opacity="1" fill-rule="nonzero"/><path fill="#fefefd" d="M 82.699219 117.953125 C 82.105469 115.335938 83.984375 112.316406 86.703125 112.019531 C 89.324219 111.625 91.699219 113.207031 93.527344 114.9375 C 95.949219 117.410156 97.632812 120.476562 99.261719 123.441406 C 97.136719 124.433594 95.058594 125.667969 93.625 127.546875 C 92.539062 128.832031 92.042969 130.464844 91.5 131.996094 C 89.621094 129.179688 87.496094 126.558594 85.515625 123.789062 C 84.378906 122.007812 83.09375 120.128906 82.699219 117.953125 Z M 82.699219 117.953125 " fill-opacity="1" fill-rule="nonzero"/><path fill="#fefefd" d="M 73.949219 123.9375 C 74.9375 121.265625 77.753906 119.636719 80.523438 119.683594 C 83.292969 125.667969 88.089844 130.316406 91.300781 136 C 91.996094 137.238281 92.488281 138.671875 92.242188 140.105469 C 91.648438 143.070312 88.039062 145.097656 85.269531 143.714844 C 83.144531 142.28125 81.3125 140.453125 79.535156 138.621094 C 77.507812 136.398438 75.332031 134.171875 74.292969 131.304688 C 73.503906 128.929688 72.957031 126.3125 73.949219 123.9375 Z M 73.949219 123.9375 " fill-opacity="1" fill-rule="nonzero"/><path fill="#fefefd" d="M 95.257812 129.179688 C 97.878906 125.964844 102.277344 124.777344 106.285156 125.074219 C 109.644531 125.125 113.699219 125.519531 115.875 128.386719 C 117.558594 131.996094 116.667969 136.199219 115.679688 139.90625 C 114.097656 145.941406 109.84375 150.984375 104.554688 154.148438 C 103.664062 154.542969 104.15625 155.53125 105 155.484375 C 106.480469 155.234375 107.71875 154.34375 109.003906 153.652344 C 109.597656 156.175781 109.84375 159.042969 108.164062 161.167969 C 104.15625 166.164062 97.777344 169.03125 91.449219 168.980469 C 89.226562 168.929688 87.839844 166.855469 87.296875 164.925781 C 91.003906 164.925781 95.011719 164.679688 98.175781 162.554688 C 99.410156 161.613281 100.796875 160.328125 100.449219 158.648438 C 98.570312 160.082031 96.742188 161.664062 94.367188 162.207031 C 91.203125 162.949219 87.59375 163.441406 84.527344 162.007812 C 88.335938 157.164062 91.796875 152.121094 95.257812 147.027344 C 95.355469 148.511719 95.457031 150.042969 95.554688 151.527344 C 96.148438 151.625 96.890625 151.921875 97.234375 151.230469 C 97.679688 148.90625 97.234375 146.484375 97.433594 144.109375 C 98.273438 142.925781 98.816406 141.539062 99.511719 140.253906 C 102.277344 139.117188 105.34375 138.523438 107.914062 136.941406 C 108.609375 136.644531 108.558594 135.457031 107.667969 135.507812 C 104.257812 136 101.09375 137.632812 97.582031 137.632812 C 96.492188 137.484375 95.109375 137.386719 94.515625 136.296875 C 93.328125 134.074219 93.527344 131.15625 95.257812 129.179688 Z M 95.257812 129.179688 " fill-opacity="1" fill-rule="nonzero"/><path fill="#fefefd" d="M 70.632812 134.617188 C 71.375 134.371094 72.265625 134.222656 73.007812 134.566406 C 73.800781 135.261719 74.390625 136.148438 75.035156 136.992188 C 77.507812 140.15625 80.523438 142.824219 83.339844 145.691406 C 84.480469 146.730469 85.070312 148.3125 85.023438 149.847656 C 84.726562 151.726562 82.996094 153.058594 81.214844 153.503906 C 78.445312 154.046875 75.726562 152.714844 73.550781 151.132812 C 70.042969 148.855469 68.113281 144.703125 67.667969 140.648438 C 67.320312 138.277344 68.164062 135.410156 70.632812 134.617188 Z M 70.632812 134.617188 " fill-opacity="1" fill-rule="nonzero"/><path fill="#fefefd" d="M 164.082031 173.578125 C 165.960938 172.886719 167.988281 172.9375 169.96875 173.085938 C 167.59375 177.089844 166.257812 181.6875 166.160156 186.335938 C 167.394531 187.324219 168.878906 188.066406 170.265625 188.855469 C 170.3125 188.957031 170.363281 189.253906 170.414062 189.351562 C 168.929688 190.144531 167.445312 190.835938 166.011719 191.675781 C 165.914062 196.324219 167.296875 200.871094 169.570312 204.878906 C 166.359375 206.261719 162.5 205.867188 159.734375 203.738281 C 156.519531 201.515625 154.984375 197.558594 154.441406 193.800781 C 153.503906 188.460938 154.835938 182.777344 158.101562 178.375 C 159.632812 176.398438 161.5625 174.46875 164.082031 173.578125 Z M 164.082031 173.578125 " fill-opacity="1" fill-rule="nonzero"/><path fill="#fefefd" d="M 190.488281 180.796875 C 193.207031 176.496094 198.445312 173.234375 203.640625 174.617188 C 200.917969 178.425781 199.585938 183.074219 199.238281 187.671875 C 200.671875 188.957031 202.453125 189.746094 204.132812 190.6875 C 202.5 191.625 200.871094 192.566406 199.238281 193.503906 C 199.1875 198.152344 200.574219 202.949219 203.640625 206.507812 C 201.511719 207.152344 199.238281 207.449219 197.0625 206.90625 C 193.304688 206.0625 190.140625 203.148438 188.757812 199.539062 C 186.332031 193.503906 187.027344 186.335938 190.488281 180.796875 Z M 190.488281 180.796875 " fill-opacity="1" fill-rule="nonzero"/><path fill="#fefefd" d="M 307.964844 246.507812 C 307.125 244.234375 305.148438 242.652344 303.269531 241.21875 C 299.90625 238.894531 295.554688 237.410156 291.550781 238.746094 C 289.425781 239.390625 287.695312 241.121094 287.101562 243.246094 C 288.878906 243.445312 290.757812 243.492188 292.488281 244.183594 C 293.082031 244.332031 293.28125 244.925781 293.527344 245.371094 C 292.390625 245.667969 291.15625 245.765625 289.96875 245.667969 C 284.527344 245.324219 278.890625 245.371094 273.652344 247.054688 C 268.707031 248.535156 264.207031 251.800781 261.734375 256.398438 C 259.707031 260.304688 258.421875 264.851562 259.261719 269.253906 C 259.609375 271.03125 261.636719 271.921875 263.316406 271.675781 C 266.136719 271.28125 268.757812 269.796875 270.636719 267.71875 C 270.238281 266.832031 269.992188 265.839844 269.449219 265 C 268.855469 264.40625 268.015625 264.0625 267.621094 263.320312 C 268.507812 262.875 269.648438 262.824219 270.4375 263.566406 C 273.257812 265.839844 274.097656 269.847656 273.652344 273.308594 C 273.402344 274.59375 272.710938 276.71875 271.03125 276.078125 C 270.980469 274.246094 271.523438 272.46875 271.277344 270.636719 C 269.351562 271.875 267.421875 273.160156 265.148438 273.753906 C 264.601562 274 263.714844 273.902344 263.417969 274.542969 C 263.515625 277.511719 264.601562 280.425781 266.582031 282.652344 C 269.992188 286.359375 275.875 287.894531 280.574219 285.71875 C 282.75 284.878906 284.28125 283.046875 285.667969 281.21875 C 285.964844 280.574219 287 280.527344 287.25 281.269531 C 287.445312 282.40625 286.605469 283.394531 286.210938 284.382812 C 290.3125 284.285156 294.121094 282.304688 297.089844 279.539062 C 301.488281 275.1875 303.714844 268.90625 303.714844 262.777344 C 303.761719 257.929688 302.132812 252.984375 298.71875 249.476562 C 298.027344 248.832031 299.164062 248.089844 299.757812 248.585938 C 302.082031 249.921875 303.367188 252.441406 304.75 254.667969 C 307.273438 252.886719 308.90625 249.625 307.964844 246.507812 Z M 307.964844 246.507812 " fill-opacity="1" fill-rule="nonzero"/><path fill="#fefefd" d="M 172.636719 312.960938 C 172.441406 310.390625 174.566406 308.363281 176.691406 307.324219 C 177.828125 310.042969 177.53125 313.554688 179.957031 315.632812 C 183.566406 318.105469 189.300781 318.351562 192.367188 314.839844 C 193.058594 313.257812 191.921875 311.773438 191.328125 310.390625 C 193.453125 311.230469 195.875 312.515625 196.421875 314.9375 C 196.863281 316.867188 197.558594 319.390625 195.777344 320.871094 C 192.8125 323.542969 188.65625 325.371094 184.652344 324.480469 C 180.84375 323.445312 177.433594 321.367188 173.527344 320.722656 C 173.230469 318.152344 172.835938 315.582031 172.636719 312.960938 Z M 172.636719 312.960938 " fill-opacity="1" fill-rule="nonzero"/><path fill="#fefefd" d="M 242.304688 308.015625 C 247.148438 310.339844 249.769531 315.679688 250.957031 320.675781 C 246.160156 320.179688 241.613281 322.257812 237.753906 324.925781 C 235.976562 326.0625 234.640625 327.84375 232.761719 328.785156 C 230.785156 329.03125 228.261719 328.832031 226.925781 327.101562 C 225.492188 324.53125 224.652344 321.566406 224.703125 318.648438 C 224.652344 316.027344 226.035156 313.308594 228.460938 312.070312 C 229.003906 313.949219 228.757812 316.226562 230.238281 317.707031 C 233.304688 321.367188 240.078125 320.328125 241.957031 315.976562 C 243.195312 313.503906 242.648438 310.6875 242.304688 308.015625 Z M 242.304688 308.015625 " fill-opacity="1" fill-rule="nonzero"/><path fill="#fefefd" d="M 166.703125 324.878906 C 168.730469 323.691406 171.105469 322.851562 173.429688 323.195312 C 177.679688 323.839844 181.339844 326.609375 185.640625 327.054688 C 189.449219 327.300781 193.105469 325.71875 196.222656 323.691406 C 197.902344 329.082031 199.734375 334.46875 201.066406 340.007812 C 197.359375 342.132812 193.207031 343.320312 189.101562 344.457031 C 182.921875 345.941406 176.640625 347.277344 170.3125 347.671875 C 169.917969 340.996094 167.59375 334.125 162.796875 329.328125 C 162.550781 329.03125 162.253906 328.683594 162.007812 328.339844 C 162.847656 327.695312 163.636719 326.164062 164.875 326.757812 C 168.285156 327.992188 171.746094 329.128906 174.664062 331.355469 C 175.160156 331.652344 175.902344 332.292969 176.394531 331.601562 C 177.085938 331.007812 176.542969 330.019531 175.949219 329.574219 C 173.328125 327.351562 169.820312 326.410156 166.703125 324.878906 Z M 166.703125 324.878906 " fill-opacity="1" fill-rule="nonzero"/><path fill="#fefefd" d="M 240.277344 326.113281 C 243.046875 324.382812 246.160156 323 249.425781 322.949219 C 251.054688 322.949219 252.441406 323.9375 253.726562 324.878906 C 250.3125 327.25 245.863281 327.597656 242.550781 330.167969 C 241.859375 330.664062 241.5625 331.898438 242.5 332.246094 C 243.292969 332.292969 243.9375 331.75 244.628906 331.453125 C 248.285156 329.527344 252.292969 328.488281 255.949219 326.609375 C 256.9375 327.597656 257.878906 328.585938 258.570312 329.820312 C 253.625 331.007812 248.78125 333.578125 245.863281 337.929688 C 243.589844 341.292969 242.203125 345.25 241.660156 349.253906 C 239.238281 349.105469 236.964844 348.214844 234.691406 347.425781 C 231.523438 346.136719 228.3125 344.703125 225.738281 342.332031 C 225.296875 341.835938 224.554688 341.34375 224.703125 340.550781 C 224.949219 336.894531 225.59375 333.28125 226.234375 329.671875 C 228.460938 330.960938 231.128906 331.75 233.652344 330.910156 C 236.222656 329.820312 237.953125 327.546875 240.277344 326.113281 Z M 240.277344 326.113281 " fill-opacity="1" fill-rule="nonzero"/><path fill="#fefefd" d="M 141.191406 328.734375 C 147.320312 325.421875 155.777344 325.769531 160.917969 330.8125 C 165.371094 335.308594 167.742188 341.6875 167.988281 347.96875 C 158.644531 348.757812 149.101562 348.859375 139.953125 346.433594 C 136.988281 345.546875 133.921875 344.507812 131.746094 342.234375 C 132.785156 336.695312 136.148438 331.453125 141.191406 328.734375 Z M 141.191406 328.734375 " fill-opacity="1" fill-rule="nonzero"/><path fill="#fefefd" d="M 252.191406 335.015625 C 257.1875 331.601562 263.613281 331.007812 269.398438 332.394531 C 275.925781 333.925781 281.761719 338.625 284.234375 344.953125 C 281.5625 347.574219 277.953125 348.757812 274.441406 349.746094 C 267.71875 351.429688 260.695312 351.972656 253.773438 351.332031 C 250.460938 351.082031 247.101562 350.785156 243.9375 349.847656 C 244.675781 344.0625 247.25 338.277344 252.191406 335.015625 Z M 252.191406 335.015625 " fill-opacity="1" fill-rule="nonzero"/><path fill="#fefefd" d="M 179.511719 348.859375 C 187.273438 347.523438 194.984375 345.644531 202.105469 342.28125 C 202.304688 343.371094 202.648438 344.507812 202.550781 345.644531 C 202.15625 346.535156 201.214844 346.929688 200.425781 347.472656 C 197.605469 349.007812 194.542969 349.945312 191.476562 350.835938 C 182.277344 353.308594 172.835938 354.59375 163.390625 355.089844 C 154.886719 355.382812 146.136719 355.285156 137.929688 352.863281 C 135.605469 352.121094 133.132812 351.28125 131.300781 349.5 C 130.707031 348.117188 131.105469 346.535156 131.105469 345.101562 C 136.097656 348.363281 142.03125 349.648438 147.867188 350.292969 C 158.445312 351.332031 169.125 350.636719 179.511719 348.859375 Z M 179.511719 348.859375 " fill-opacity="1" fill-rule="nonzero"/><path fill="#fefefd" d="M 223.761719 343.667969 C 227.074219 346.929688 231.425781 348.859375 235.777344 350.292969 C 243.6875 352.8125 251.996094 353.949219 260.300781 353.851562 C 265.691406 353.851562 271.082031 353.109375 276.273438 351.625 C 279.1875 350.6875 282.15625 349.648438 284.527344 347.722656 C 284.925781 347.472656 285.320312 346.878906 285.816406 347.226562 C 286.257812 348.757812 286.953125 350.6875 285.816406 352.070312 C 284.378906 353.703125 282.355469 354.644531 280.375 355.382812 C 273.699219 357.757812 266.53125 358.351562 259.460938 358.203125 C 250.265625 358.003906 241.019531 356.472656 232.464844 353.109375 C 229.398438 351.726562 226.085938 350.390625 223.8125 347.820312 C 222.722656 346.632812 223.613281 345 223.761719 343.667969 Z M 223.761719 343.667969 " fill-opacity="1" fill-rule="nonzero"/><path fill="#ffde59" d="M 139.511719 210.859375 C 139.558594 209.574219 139.460938 207.597656 141.242188 207.546875 C 141.140625 213.234375 142.230469 218.917969 144.453125 224.160156 C 144.949219 225.25 145.394531 226.335938 145.691406 227.472656 C 145.097656 227.71875 144.257812 228.164062 143.910156 227.375 C 140.5 222.628906 139.410156 216.59375 139.511719 210.859375 Z M 139.511719 210.859375 " fill-opacity="1" fill-rule="nonzero"/><path fill="#ffde59" d="M 286.507812 203.542969 C 284.28125 201.664062 281.464844 200.574219 278.792969 199.339844 C 276.570312 198.300781 273.996094 197.707031 272.167969 195.929688 C 270.042969 194 269.5 190.785156 270.191406 188.117188 C 270.832031 185.691406 273.402344 183.765625 275.976562 184.257812 C 278.792969 184.804688 281.316406 186.136719 284.035156 187.027344 C 281.613281 176 276.371094 165.71875 269.398438 156.867188 C 260.746094 146.136719 249.175781 137.78125 236.222656 133.132812 C 225.742188 129.179688 214.320312 127.746094 203.144531 128.78125 C 190.585938 130.070312 178.324219 134.519531 167.890625 141.636719 C 157.0625 149.003906 148.210938 159.191406 142.082031 170.761719 C 136.789062 180.847656 134.023438 192.121094 133.578125 203.492188 C 133.179688 215.0625 135.605469 226.730469 140.597656 237.164062 C 142.378906 240.773438 144.15625 244.480469 146.777344 247.597656 C 147.765625 249.671875 149.300781 251.453125 150.785156 253.183594 C 154.9375 257.929688 159.335938 262.480469 164.578125 266.039062 C 169.867188 270.09375 175.851562 273.160156 181.980469 275.679688 C 192.664062 280.03125 204.332031 282.058594 215.851562 281.019531 C 230.4375 279.585938 244.777344 274.394531 256.394531 265.347656 C 256.890625 264.953125 256.792969 264.210938 256.9375 263.667969 C 257.335938 259.957031 258.964844 256.546875 260.648438 253.28125 C 259.707031 252.640625 258.621094 252.046875 258.125 250.957031 C 257.085938 248.933594 257.285156 246.507812 257.730469 244.332031 C 259.066406 239.09375 262.28125 234.246094 266.777344 231.132812 C 268.507812 229.894531 270.636719 228.90625 272.859375 229.300781 C 274.640625 229.746094 275.875 231.625 275.875 233.40625 C 276.125 237.558594 273.898438 241.269531 272.019531 244.828125 C 273.402344 244.433594 274.9375 244.332031 276.222656 243.640625 C 279.289062 239.191406 281.214844 234.050781 282.945312 228.90625 C 285.519531 220.847656 286.902344 212.144531 286.507812 203.542969 Z M 257.582031 154.296875 C 261.785156 157.3125 265.246094 161.613281 266.480469 166.707031 C 266.976562 168.882812 267.125 171.355469 265.890625 173.332031 C 265.148438 174.617188 263.761719 175.359375 262.378906 175.804688 C 258.523438 176.347656 254.617188 174.863281 251.945312 172.144531 C 248.089844 168.4375 245.320312 162.851562 246.554688 157.410156 C 247 155.285156 248.582031 153.652344 250.363281 152.566406 C 252.933594 152.167969 255.554688 152.761719 257.582031 154.296875 Z M 205.765625 135.0625 C 207.101562 132.789062 210.015625 132.34375 212.441406 131.996094 C 216.640625 131.601562 220.992188 132.09375 224.898438 133.679688 C 226.582031 134.320312 228.210938 135.210938 229.351562 136.644531 C 230.339844 137.832031 230.289062 139.808594 229.152344 140.898438 C 227.667969 142.480469 225.394531 142.972656 223.367188 143.320312 C 218.273438 144.011719 212.835938 143.269531 208.386719 140.601562 C 206.507812 139.5625 204.824219 137.289062 205.765625 135.0625 Z M 192.859375 161.761719 C 196.074219 159.636719 200.078125 158.648438 203.933594 159.191406 C 209.078125 159.980469 213.132812 164.480469 214.269531 169.425781 C 213.675781 169.625 212.738281 170.265625 212.292969 169.476562 C 211.007812 167.449219 210.066406 165.074219 208.089844 163.589844 C 204.675781 160.675781 199.585938 160.871094 195.726562 162.851562 C 194.640625 163.292969 193.550781 164.382812 192.316406 163.691406 C 192.265625 163.046875 192.117188 162.15625 192.859375 161.761719 Z M 184.949219 191.675781 C 185.046875 185.742188 187.222656 179.5625 191.773438 175.558594 C 195.035156 172.835938 199.585938 171.007812 203.835938 172.195312 C 207.644531 173.332031 210.164062 176.644531 212.242188 179.808594 C 213.675781 179.117188 214.910156 178.128906 216.296875 177.386719 C 217.1875 176.890625 218.125 178.175781 217.53125 178.96875 C 216.394531 180.453125 214.515625 180.996094 213.03125 182.082031 C 213.578125 183.960938 214.023438 185.839844 214.46875 187.769531 C 215.800781 187.375 217.039062 186.683594 218.324219 186.238281 C 219.511719 185.890625 219.957031 187.96875 218.964844 188.363281 C 217.582031 189.105469 216.050781 189.550781 214.617188 190.144531 C 214.566406 195.878906 213.03125 202.007812 208.683594 206.0625 C 203.6875 210.957031 194.789062 210.710938 189.941406 205.71875 C 186.382812 202.058594 184.851562 196.71875 184.949219 191.675781 Z M 189.199219 218.671875 C 197.160156 218.027344 204.777344 215.410156 211.847656 211.800781 C 213.875 210.761719 216 209.921875 217.78125 208.535156 C 218.769531 207.101562 215.949219 205.914062 217.136719 204.480469 C 217.878906 203.789062 218.867188 204.382812 219.410156 205.027344 C 220.5 206.261719 220.300781 208.042969 220.300781 209.574219 C 220.300781 217.585938 217.1875 225.496094 211.945312 231.527344 C 207.941406 236.078125 202.402344 238.992188 196.617188 240.625 C 188.507812 242.800781 179.363281 242.058594 172.292969 237.3125 C 166.703125 233.457031 162.105469 228.066406 159.484375 221.785156 C 158.792969 219.90625 158.003906 217.78125 158.546875 215.753906 C 159.535156 213.925781 162.054688 214.46875 163.6875 215.011719 C 171.796875 218.175781 180.546875 219.5625 189.199219 218.671875 Z M 161.90625 150.933594 C 163.390625 148.164062 165.8125 146.089844 168.238281 144.160156 C 171.203125 141.933594 174.367188 139.710938 177.976562 138.722656 C 179.511719 138.324219 181.488281 138.671875 182.128906 140.253906 C 182.675781 142.035156 181.6875 143.863281 180.84375 145.394531 C 178.570312 149.054688 175.011719 151.726562 171.253906 153.703125 C 168.832031 154.890625 166.109375 155.878906 163.390625 155.53125 C 161.414062 155.085938 161.019531 152.515625 161.90625 150.933594 Z M 159.039062 163.691406 C 161.019531 161.515625 163.441406 159.734375 166.210938 158.695312 C 169.570312 157.460938 173.578125 158.101562 176.394531 160.378906 C 177.085938 160.773438 176.691406 161.515625 176.691406 162.15625 C 174.863281 162.703125 173.429688 160.972656 171.699219 160.675781 C 167.445312 159.636719 163.390625 162.304688 160.523438 165.222656 C 160.027344 165.914062 159.238281 165.617188 158.546875 165.570312 C 158.496094 164.925781 158.496094 164.183594 159.039062 163.691406 Z M 149.84375 181.933594 C 150.832031 182.527344 151.625 183.367188 152.660156 183.8125 C 153.207031 182.035156 154.097656 180.402344 154.835938 178.671875 C 153.550781 177.832031 152.070312 177.140625 151.179688 175.855469 C 150.535156 175.011719 151.476562 173.726562 152.464844 174.023438 C 153.652344 174.914062 154.6875 176.050781 155.976562 176.84375 C 158.101562 174.519531 160.324219 172.195312 163.390625 171.15625 C 166.703125 169.820312 170.660156 170.167969 173.476562 172.441406 C 178.371094 176.25 180.546875 182.628906 180.597656 188.660156 C 180.695312 193.753906 179.164062 198.945312 175.949219 203 C 173.378906 206.261719 169.273438 208.386719 165.121094 208.140625 C 160.425781 207.992188 156.125 204.828125 153.996094 200.722656 C 151.671875 196.273438 151.574219 191.132812 151.921875 186.285156 C 150.785156 185.59375 149.496094 184.902344 148.855469 183.664062 C 148.460938 182.925781 148.953125 181.738281 149.84375 181.933594 Z M 138.222656 185.59375 C 139.410156 180.5 141.339844 175.507812 144.058594 171.058594 C 144.898438 169.871094 145.640625 168.488281 146.925781 167.792969 C 147.667969 167.300781 148.707031 167.894531 148.855469 168.683594 C 149.199219 171.253906 148.210938 173.777344 147.421875 176.148438 C 146.035156 179.957031 144.554688 183.765625 142.179688 187.078125 C 141.390625 188.164062 140.152344 189.402344 138.667969 188.90625 C 137.632812 188.214844 138.074219 186.683594 138.222656 185.59375 Z M 144.703125 230.441406 C 143.367188 230.390625 142.378906 229.300781 141.636719 228.3125 C 139.164062 224.851562 138.074219 220.648438 137.484375 216.496094 C 137.234375 213.976562 136.988281 211.402344 137.484375 208.929688 C 137.828125 207.496094 138.570312 206.015625 139.953125 205.421875 C 141.339844 204.730469 143.070312 205.125 144.207031 206.113281 C 146.382812 207.941406 147.371094 210.761719 148.164062 213.382812 C 149.300781 217.980469 149.746094 222.972656 148.261719 227.570312 C 147.816406 229.105469 146.433594 230.589844 144.703125 230.441406 Z M 173.773438 262.675781 C 171.996094 263.960938 169.621094 263.171875 167.839844 262.332031 C 162.453125 259.414062 157.902344 254.863281 155.234375 249.328125 C 154.886719 247.992188 154.492188 246.558594 154.984375 245.273438 C 155.578125 243.789062 157.0625 242.851562 158.59375 242.652344 C 161.761719 242.15625 164.777344 243.640625 167.25 245.46875 C 171.105469 248.488281 174.21875 252.691406 175.109375 257.585938 C 175.207031 259.316406 175.40625 261.539062 173.773438 262.675781 Z M 215.503906 277.808594 C 214.070312 278.746094 212.242188 278.945312 210.5625 279.09375 C 206.011719 279.339844 201.414062 278.84375 196.964844 277.660156 C 195.382812 277.164062 193.75 276.71875 192.414062 275.730469 C 191.671875 275.234375 191.328125 274.199219 191.773438 273.355469 C 193.105469 272.121094 195.035156 271.972656 196.765625 271.773438 C 201.5625 271.476562 206.40625 271.625 211.054688 272.714844 C 212.738281 273.160156 214.566406 273.652344 215.753906 274.988281 C 216.347656 275.828125 216.445312 277.261719 215.503906 277.808594 Z M 231.574219 262.875 C 225.691406 266.730469 217.335938 266.335938 211.746094 262.035156 C 209.671875 260.5 208.730469 257.882812 208.878906 255.359375 C 210.164062 249.277344 216.097656 245.46875 221.835938 244.285156 C 225 243.445312 228.359375 243.988281 231.425781 244.976562 C 233.75 245.914062 236.171875 247.496094 236.816406 250.070312 C 238.152344 254.964844 235.679688 260.253906 231.574219 262.875 Z M 264.851562 216.742188 C 263.664062 219.066406 261.984375 221.195312 259.660156 222.527344 C 257.335938 223.8125 254.367188 223.664062 252.09375 222.378906 C 249.226562 220.648438 247.148438 217.734375 246.210938 214.566406 C 244.480469 208.585938 245.863281 201.515625 250.414062 197.113281 C 252.738281 194.789062 256.246094 193.554688 259.460938 194.445312 C 263.316406 195.730469 265.59375 199.636719 266.433594 203.441406 C 267.371094 207.894531 266.878906 212.640625 264.851562 216.742188 Z M 264.851562 216.742188 " fill-opacity="1" fill-rule="nonzero"/><path fill="#d09503" d="M 207.941406 135.902344 C 210.414062 134.371094 213.429688 134.269531 216.246094 134.371094 C 219.957031 134.566406 223.664062 135.457031 226.828125 137.4375 C 227.519531 137.832031 228.015625 138.574219 227.667969 139.363281 C 226.976562 139.710938 226.234375 139.414062 225.59375 139.214844 C 220.945312 137.535156 216 136.695312 211.054688 136.84375 C 209.96875 136.84375 208.929688 136.84375 207.839844 136.792969 C 207.839844 136.59375 207.890625 136.148438 207.941406 135.902344 Z M 207.941406 135.902344 " fill-opacity="1" fill-rule="nonzero"/><path fill="#d09503" d="M 177.285156 141.390625 C 178.125 140.996094 179.113281 140.898438 180.003906 141.046875 C 179.855469 142.332031 178.621094 142.925781 177.632812 143.515625 C 173.28125 145.988281 169.273438 149.054688 165.8125 152.664062 C 165.320312 153.308594 164.28125 153.554688 163.785156 152.8125 C 163.785156 151.773438 164.527344 150.984375 165.171875 150.242188 C 168.535156 146.484375 172.589844 143.269531 177.285156 141.390625 Z M 177.285156 141.390625 " fill-opacity="1" fill-rule="nonzero"/><path fill="#d09503" d="M 250.265625 155.136719 C 253.28125 153.949219 256.199219 155.976562 258.375 157.855469 C 261.734375 161.121094 264.652344 165.421875 264.652344 170.265625 C 264.75 171.75 263.566406 172.789062 262.328125 173.382812 C 261.835938 167.152344 258.078125 161.5625 253.328125 157.65625 C 252.339844 156.769531 250.90625 156.371094 250.265625 155.136719 Z M 250.265625 155.136719 " fill-opacity="1" fill-rule="nonzero"/><path fill="#d09503" d="M 257.136719 196.472656 C 259.558594 196.519531 261.585938 198.152344 262.773438 200.179688 C 265.046875 203.886719 265.046875 208.636719 263.910156 212.738281 C 262.972656 215.753906 261.4375 218.871094 258.570312 220.5 C 257.382812 221.242188 255.949219 221.195312 254.664062 220.945312 C 256.496094 218.722656 258.273438 216.445312 259.214844 213.726562 C 261.191406 208.585938 260.945312 202.355469 257.730469 197.808594 C 257.484375 197.363281 257.285156 196.917969 257.136719 196.472656 Z M 257.136719 196.472656 " fill-opacity="1" fill-rule="nonzero"/><path fill="#d09503" d="M 271.722656 231.824219 C 272.515625 231.972656 273.453125 232.171875 273.503906 233.160156 C 273.75 236.964844 271.773438 240.425781 269.84375 243.542969 C 268.3125 246.164062 266.035156 248.238281 263.417969 249.773438 C 265.691406 245.765625 268.507812 242.058594 270.089844 237.707031 C 270.933594 235.828125 271.230469 233.753906 271.722656 231.824219 Z M 271.722656 231.824219 " fill-opacity="1" fill-rule="nonzero"/><path fill="#d09503" d="M 157.359375 245.570312 C 158.25 246.359375 158.84375 247.449219 159.535156 248.386719 C 162.796875 252.691406 167.050781 256.25 171.894531 258.722656 C 172.882812 259.019531 172.488281 260.105469 172.339844 260.847656 C 171.300781 260.945312 170.3125 260.796875 169.375 260.304688 C 164.628906 258.078125 160.671875 254.273438 158.101562 249.722656 C 157.457031 248.488281 156.46875 247.003906 157.359375 245.570312 Z M 157.359375 245.570312 " fill-opacity="1" fill-rule="nonzero"/><path fill="#d09503" d="M 232.21875 248.683594 C 233.304688 247.792969 233.996094 249.523438 234.589844 250.21875 C 232.464844 253.132812 229.152344 254.914062 225.988281 256.445312 C 221.933594 258.179688 217.632812 259.511719 213.179688 259.511719 C 211.402344 259.414062 211.152344 257.1875 211.203125 255.804688 C 218.71875 255.707031 226.085938 252.886719 232.21875 248.683594 Z M 232.21875 248.683594 " fill-opacity="1" fill-rule="nonzero"/><path fill="#ea332f" d="M 195.183594 229.996094 C 198.59375 226.878906 203.441406 225.792969 207.941406 226.136719 C 209.175781 226.335938 210.660156 226.433594 211.5 227.523438 C 211.550781 228.3125 210.859375 228.90625 210.460938 229.550781 C 206.457031 234.347656 200.621094 237.363281 194.542969 238.597656 C 188.410156 240.03125 181.6875 239.488281 176.050781 236.621094 C 179.015625 233.109375 183.21875 230.785156 187.617188 229.449219 C 189.25 228.90625 190.980469 228.808594 192.710938 228.90625 C 192.21875 230.339844 191.328125 231.675781 190.980469 233.160156 C 190.785156 233.902344 191.871094 234.199219 192.316406 233.753906 C 193.402344 232.566406 193.996094 231.03125 195.183594 229.996094 Z M 195.183594 229.996094 " fill-opacity="1" fill-rule="nonzero"/></svg>